# xmcd
#
# Track frame offsets: 
#        150
#        20906
#        43015
#        54557
#        79887
#        94221
#        118969
#        130051
#        154515
#        171458
#        196799
#        210669
#        236884
#
# Disc length: 3336 seconds
#
# Revision: 0
# Processed by: cddbd v1.5.2PL0 Copyright (c) Steve Scherf et al.
# Submitted via: ExactAudioCopyFreeDBPlugin 1.0
#
DISCID=b90d060d
DTITLE=Alabama Red - Windy City Blues 
DYEAR=2013
DGENRE=Blues
TTITLE0=Goin' Home For Christmas
TTITLE1=Windy City Blues
TTITLE2=I Love Texarkana
TTITLE3=Too Late
TTITLE4=Strange Feeling
TTITLE5=Ghetto Blues
TTITLE6=Lucille
TTITLE7=How Much Longer
TTITLE8=I'm Ready To Go Home
TTITLE9=I Have A Friend
TTITLE10=Help Me To Spend This Gold
TTITLE11=O Lord Help The Blind
TTITLE12=Airport Blues
EXTD=
EXTT0=
EXTT1=
EXTT2=
EXTT3=
EXTT4=
EXTT5=
EXTT6=
EXTT7=
EXTT8=
EXTT9=
EXTT10=
EXTT11=
EXTT12=
PLAYORDER=
